<svg fill="none" viewBox="0 0 48 48" xmlns="http://www.w3.org/2000/svg">
    <path fill="#e9e8eb" fill-opacity="1.0" clip-path="url(#clip)" fill-rule="evenodd" d="m22.6416 17.958v-.0001c0-5.0498 4.0728-9.15785 9.0792-9.15785 5.0084 0 9.0792 4.10805 9.0792 9.15785 0 5.0493-4.0708 9.1611-9.0792 9.1611-.0677 0-.1375-.0021-.2052-.0042l-8.3693 6.023c.0247.9298-.1456 1.8617-.5109 2.7501-1.4034 3.3989-5.2934 5.0168-8.6672 3.5973-2.062-.8657-3.4597-2.6654-3.9156-4.7171l-9.080026-3.7729c-1.228343-3.6393-.9460678-8.5122-.9414219-8.5924l.0000573-.001 12.8440906 5.3246c.3494-.2314.7218-.4318 1.1192-.595.9016-.374 1.8524-.5414 2.7999-.498l5.8493-8.5565c-.0021-.038-.0021-.0785-.0021-.1189zm-8.0915 20.118c2.605 1.0931 5.6018-.1529 6.6881-2.779.5252-1.2686.5273-2.6737.0082-3.9464-.5191-1.2728-1.4987-2.2687-2.7611-2.7977-1.2522-.5248-2.5925-.5083-3.7714-.0578l3.0553 1.2748c1.9201.8058 2.8288 3.0291 2.0278 4.9651-.7986 1.934-3.0026 2.8514-4.9237 2.0455l-2.9556-1.2335c.5234 1.1013 1.4307 2.0249 2.6324 2.529zm17.1707-14.015c-3.3342 0-6.0487-2.7377-6.0487-6.1031 0-3.3628 2.7145-6.1013 6.0487-6.1013 3.3362 0 6.0507 2.7385 6.0507 6.1013 0 3.3654-2.7145 6.1031-6.0507 6.1031zm.0103-10.6975c-2.5073 0-4.5427 2.0533-4.5427 4.5851 0 2.5319 2.0354 4.5834 4.5427 4.5834 2.5093 0 4.5447-2.0515 4.5447-4.5834 0-2.5318-2.0354-4.5851-4.5447-4.5851z" />
</svg>